<?xml version="1.0" encoding="UTF-8" standalone="no"?>

<svg
   width="50.799999mm"
   height="50.799999mm"
   viewBox="0 0 50.799999 50.799999"
   version="1.1"
   id="svg1"
   xml:space="preserve"
   xmlns="http://www.w3.org/2000/svg"
   xmlns:svg="http://www.w3.org/2000/svg">
   <defs
     id="defs1" />
     
     <g
     id="layer1"
     transform="translate(-18.149336,-192.27458)">
     
     <path
       style="fill:#1a1a1a"
       d="m 18.149335,217.67458 v -25.4 h 25.4 25.4 v 25.4 25.4 h -25.4 -25.4 z m 15.584002,14.22136 1.962576,-5.49011 h 0.493676 0.493677 l 0.243474,0.64039 0.243475,0.64039 2.033393,4.92533 2.033392,4.92534 2.387818,-0.0756 2.387818,-0.0756 0.708901,-1.71979 0.708898,-1.71979 1.5403,-3.77031 1.5403,-3.77032 h 0.30246 0.30245 l 0.2982,0.8599 0.2982,0.8599 1.66057,4.69635 1.66056,4.69635 h 4.04751 4.04752 v -19.84375 -19.84375 l -3.10886,6.3e-4 -3.10885,6.3e-4 -2.23086,5.48948 -2.23085,5.48947 -0.63163,1.45521 -0.63163,1.45521 -0.75313,-1.98438 -0.75313,-1.98437 -1.80834,-4.95642 -1.808348,-4.95642 -2.676034,-0.005 -2.676033,-0.005 -0.459557,1.25677 -0.459557,1.25678 -0.730808,1.98437 -0.730807,1.98438 -1.28589,3.48769 -1.285891,3.4877 -1.154835,-2.82624 -1.154835,-2.82624 -1.190453,-2.91041 -1.190453,-2.91042 -0.413912,-0.99219 -0.413913,-0.99219 h -3.002573 -3.002574 v 19.85102 19.85101 l 3.768005,-0.0734 3.768004,-0.0734 z m -4.736085,2.19603 v -3.19077 l 1.079802,-2.97529 1.079802,-2.97528 0.739821,-1.98438 0.739821,-1.98437 0.317562,-0.99219 0.317563,-0.99219 0.177919,0.001 0.177918,0.001 1.389063,3.38878 1.389062,3.38877 v 0.18169 0.18168 h -0.53747 -0.537471 l -0.109351,0.33073 -0.10935,0.33073 -1.836146,5.15937 -1.836145,5.15938 -1.2212,0.0806 -1.2212,0.0806 z m 25.875693,1.90501 -0.44227,-1.25677 -1.51816,-4.29948 -1.51816,-4.29948 h -0.37268 -0.37269 l 0.0882,-0.22675 0.0882,-0.22675 1.30571,-3.20799 1.30572,-3.20799 0.0521,0.0613 0.0521,0.0613 1.1232,3.0427 1.12319,3.04271 1.15702,3.15929 1.15702,3.15929 v 2.72769 2.72769 h -1.3931 -1.39311 z m 2.65608,-6.82845 -0.44011,-1.30749 -0.93024,-2.51354 -0.93024,-2.51354 -0.68018,-1.85094 -0.68017,-1.85094 -0.004,-0.39802 -0.003,-0.39802 2.05401,-5.02708 2.05402,-5.02708 0.0715,5.6402 0.0715,5.64021 -0.0715,5.45686 -0.0715,5.45687 z m -14.211469,0.4736 -0.274653,-0.51319 -0.536673,-1.36156 -0.536673,-1.36155 h 1.583639 1.583639 v 0.0867 0.0867 l -0.687908,1.69927 -0.687908,1.69926 -0.08441,0.0888 -0.08441,0.0888 z m -14.295712,-10.90921 -0.0085,-10.71563 0.219504,0.39688 0.219503,0.39687 1.90741,4.67021 1.907411,4.67021 -1.35447,3.66417 -1.354469,3.66416 -0.763944,1.98438 -0.763944,1.98437 z m 11.980105,5.35487 -0.827594,-2.04758 3.310914,-0.0743 3.310914,-0.0743 0.09623,0.0962 0.09623,0.0962 -0.826225,2.02862 -0.826226,2.02861 -1.753321,-0.003 -1.753322,-0.003 z m -1.665246,-4.08997 -0.638062,-1.64552 0.0076,-0.27271 0.0076,-0.27271 2.291391,-6.4662 2.291391,-6.4662 0.06645,-0.0665 0.06645,-0.0664 1.358501,3.88681 1.3585,3.88681 1.103343,3.13357 1.10334,3.13356 -0.5806,1.4305 -0.580592,1.43049 h -3.608639 -3.608638 z m 8.899322,-2.65397 -0.1375,-0.59531 -1.241717,-3.43958 -1.241719,-3.43958 -0.966731,-2.76052 -0.966731,-2.76052 -0.268199,-0.085 -0.268198,-0.085 -0.483324,1.39027 -0.483324,1.39027 -1.453702,4.10104 -1.453702,4.10104 -0.449433,1.24831 -0.449433,1.24831 -1.181801,-2.95485 -1.181801,-2.95485 0.05512,-0.14554 0.05512,-0.14554 0.918713,-2.51355 0.918714,-2.51354 0.837021,-2.24896 0.837022,-2.24895 0.660446,-1.91823 0.660447,-1.91823 h 2.458788 2.458788 l 0.134652,0.59531 0.134653,0.59531 1.233184,3.30729 1.23319,3.3073 1.18078,3.23437 1.18078,3.23438 -1.12871,2.78187 -1.12872,2.78187 -0.16759,0.003 -0.16759,0.003 z"
       id="path374" />
       
       </g>
       
       </svg>
